# xmcd
#
# Track frame offsets: 
#        150
#        15157
#        27766
#        38980
#        51401
#        60115
#        71940
#        84815
#        97863
#        109586
#        123817
#        136097
#        153753
#        165069
#        174136
#        186110
#        198782
#        213193
#        225496
#        236514
#
# Disc length: 3352 seconds
#
# Revision: 0
# Processed by: cddbd v1.5.2PL0 Copyright (c) Steve Scherf et al.
# Submitted via: ExactAudioCopy v0.95b3
#
DISCID=d90d1614
DTITLE=Ike and Tina Turner  - Ike and Tina Turner 
DYEAR=1900
DGENRE=
TTITLE0=What You See
TTITLE1=Shake
TTITLE2=Down In The Valley
TTITLE3=Ya Ya
TTITLE4=The Loco-Motion
TTITLE5=Proud Mary
TTITLE6=I Know
TTITLE7=Shame Shame Shame
TTITLE8=Something's Got A Hold On Me
TTITLE9=Baby Get It On
TTITLE10=Louie Louie
TTITLE11=Only Women Bleed
TTITLE12=Ain't That A Shame
TTITLE13=Feel It (Aka Don't Fight It Feel It)
TTITLE14=Knock On Wood
TTITLE15=Get Back
TTITLE16=Tweedle Dee
TTITLE17=Stagger Lee
TTITLE18=It's Gonna Work Out Fine
TTITLE19=Drift Away
EXTD=
EXTT0=
EXTT1=
EXTT2=
EXTT3=
EXTT4=
EXTT5=
EXTT6=
EXTT7=
EXTT8=
EXTT9=
EXTT10=
EXTT11=
EXTT12=
EXTT13=
EXTT14=
EXTT15=
EXTT16=
EXTT17=
EXTT18=
EXTT19=
PLAYORDER=
